<svg id="图层_1" data-name="图层 1" xmlns="http://www.w3.org/2000/svg" viewBox="0 0 420 218"><defs><style>.cls-1,.cls-2{fill:#fff;}.cls-1{fill-rule:evenodd;}</style></defs><path class="cls-1" d="M344.2,44.74,327,62,309.7,44.74V35.53H295.5v9.21L249.75,90.52a10.11,10.11,0,0,0-3,7.18v24a10.43,10.43,0,0,0,3,7.18l55,55h8L327,169.53l36.63,36.63H288.32L206,123.81a10.31,10.31,0,0,0-7.19-3H159.49A10.14,10.14,0,0,0,149.36,131v52.82h73.07v22.34H127V35.53H76.26V206.16H54V35.53H7.26l-2-2V15.19l2-2H222.43V35.53H149.36v52.8A10.17,10.17,0,0,0,159.49,98.5h39.36a9.63,9.63,0,0,0,7.19-3l82.28-82.35h66l2,2V33.5l-2,2H344.2Z"/><path class="cls-2" d="M265.27,100.78,291.62,72.4l.94-1h33.85l.51-.6.48.6h30.9L386,100.69,326.89,164l-61.62-63.18Zm61.54,48.79,15.6-45.68H310l16.85,45.68Zm-7.59-2.47-16-43.21h-26.2l42.15,43.21Zm15.17-.35,40.07-42.86H349l-14.63,42.86Zm40.08-49.13L358.18,80.41l-6.92,17.21Zm-34.07,0-13.66-17L312,97.62Zm-39.68,0L293,80.15,276.77,97.62Zm5.55-3,14.7-17H298.74l7.53,17Zm39.54-.31,6.71-16.66H332.44l13.37,16.66Z"/><path class="cls-2" d="M401.82,32.07a16,16,0,0,0-2.51-3,7.77,7.77,0,0,0-1.83-1.14,7.92,7.92,0,0,0,4.86-2.12,5.73,5.73,0,0,0,1.57-4.09,6.46,6.46,0,0,0-.94-3.43,5,5,0,0,0-2.54-2.18,13.16,13.16,0,0,0-4.64-.63H385.67V38.28h3V28.15h3.5a10.73,10.73,0,0,1,1.69.1,4.41,4.41,0,0,1,1.37.62,6.6,6.6,0,0,1,1.53,1.53c.58.72,1.3,1.77,2.18,3.13l3,4.75h3.8Zm-6.63-6.53h-6.5V18h7.22a5.48,5.48,0,0,1,3.72,1,3.42,3.42,0,0,1,1.18,2.66,3.71,3.71,0,0,1-.62,2,3.37,3.37,0,0,1-1.76,1.36A9.64,9.64,0,0,1,395.19,25.54Z"/><path class="cls-2" d="M394.49,6.09a20.29,20.29,0,1,0,20.28,20.29A20.33,20.33,0,0,0,394.49,6.09Zm0,37.08a16.8,16.8,0,1,1,16.79-16.79A16.83,16.83,0,0,1,394.49,43.17Z"/></svg>