<svg id="图层_1" data-name="图层 1" xmlns="http://www.w3.org/2000/svg" viewBox="0 0 420 218"><defs><style>.cls-1{fill-rule:evenodd;}</style></defs><path class="cls-1" d="M344.73,47.62,327.48,64.87,310.23,47.62V38.41H296v9.21L250.28,93.39a10.13,10.13,0,0,0-3,7.19v24a10.44,10.44,0,0,0,3,7.18l55,55h8l14.27-14.3L364.11,209H288.85l-82.28-82.35a10.32,10.32,0,0,0-7.19-3H160a10.14,10.14,0,0,0-10.13,10.14V186.7H223V209h-95.4V38.41H76.79V209H54.49V38.41H7.79l-2-2V18.07l2-2H223V38.41H149.89V91.2A10.17,10.17,0,0,0,160,101.37h39.36a9.61,9.61,0,0,0,7.19-3L288.85,16h66l2,2v18.3l-2,2H344.73Z"/><path d="M265.79,103.66l26.36-28.39.94-1h33.85l.51-.59.48.59h30.9l27.72,29.31-59.13,63.26-61.63-63.17Zm61.55,48.79,15.6-45.69H310.49l16.85,45.69ZM319.75,150,303.8,106.76H277.6L319.75,150Zm15.17-.36L375,106.76H349.55l-14.63,42.86ZM375,100.5,358.71,83.28l-6.92,17.22Zm-34.07,0-13.66-17-14.75,17Zm-39.68,0L293.51,83,277.3,100.5Zm5.55-3,14.7-17H299.27l7.53,17Zm39.54-.31,6.71-16.67H333l13.37,16.67Z"/><path d="M402.35,34.94a16.23,16.23,0,0,0-2.51-3A7.77,7.77,0,0,0,398,30.78a7.86,7.86,0,0,0,4.86-2.13,5.69,5.69,0,0,0,1.57-4.08,6.49,6.49,0,0,0-.94-3.44A5.11,5.11,0,0,0,401,19a13.43,13.43,0,0,0-4.64-.62H386.2V41.16h3V31h3.5a9.69,9.69,0,0,1,1.69.1,4.41,4.41,0,0,1,1.37.62,6.52,6.52,0,0,1,1.53,1.52c.58.73,1.3,1.78,2.18,3.14l3,4.75h3.8Zm-6.63-6.52h-6.5V20.86h7.22a5.53,5.53,0,0,1,3.72,1,3.44,3.44,0,0,1,1.18,2.67,3.73,3.73,0,0,1-.62,2A3.39,3.39,0,0,1,399,28,9.9,9.9,0,0,1,395.72,28.42Z"/><path d="M395,9A20.29,20.29,0,1,0,415.3,29.25,20.33,20.33,0,0,0,395,9Zm0,37.09a16.8,16.8,0,1,1,16.79-16.8A16.84,16.84,0,0,1,395,46.05Z"/></svg>