<svg id="图层_1" data-name="图层 1" xmlns="http://www.w3.org/2000/svg" xmlns:xlink="http://www.w3.org/1999/xlink" viewBox="0 0 420 420"><defs><style>.cls-1,.cls-3{fill:#ed1c24;}.cls-1{fill-rule:evenodd;}.cls-2{fill:url(#linear-gradient);}</style><linearGradient id="linear-gradient" x1="325.64" y1="216.18" x2="325.64" y2="278.53" gradientUnits="userSpaceOnUse"><stop offset="0.35" stop-color="#ed1c24"/><stop offset="1" stop-color="#8b0304"/></linearGradient></defs><path class="cls-1" d="M344.2,160.71,327,178,309.7,160.71V151.5H295.5v9.21l-45.75,45.78a10.13,10.13,0,0,0-3,7.18v24a10.41,10.41,0,0,0,3,7.18l55,55h8L327,285.5l36.63,36.63H288.32L206,239.78a10.31,10.31,0,0,0-7.19-2.95H159.49A10.14,10.14,0,0,0,149.36,247v52.82h73.07v22.34H127V151.5H76.26V322.13H54V151.5H7.26l-2-2V131.16l2-2H222.43V151.5H149.36v52.8a10.17,10.17,0,0,0,10.13,10.17h39.36a9.63,9.63,0,0,0,7.19-3l82.28-82.35h66l2,2v18.31l-2,2H344.2Z"/><path class="cls-2" d="M265.27,216.75l26.35-28.38.94-1h33.85l.51-.6.48.6h30.9L386,216.66l-59.13,63.27-61.62-63.18Zm61.54,48.79,15.6-45.68H310l16.85,45.68Zm-7.59-2.47-16-43.21h-26.2l42.15,43.21Zm15.17-.35,40.07-42.86H349l-14.63,42.86Zm40.08-49.13-16.29-17.21-6.92,17.21Zm-34.07,0-13.66-17-14.75,17Zm-39.68,0L293,196.12l-16.21,17.47Zm5.55-3,14.7-17H298.74l7.53,17Zm39.54-.31,6.71-16.66H332.44l13.37,16.66Z"/><path class="cls-3" d="M401.82,148a16.65,16.65,0,0,0-2.51-3,7.77,7.77,0,0,0-1.83-1.14,7.92,7.92,0,0,0,4.86-2.12,5.72,5.72,0,0,0,1.57-4.09,6.46,6.46,0,0,0-.94-3.43,5,5,0,0,0-2.54-2.18,13.16,13.16,0,0,0-4.64-.63H385.67v22.83h3V144.12h3.5a10.73,10.73,0,0,1,1.69.1,4.65,4.65,0,0,1,1.37.62,6.6,6.6,0,0,1,1.53,1.53c.58.72,1.3,1.78,2.18,3.13l3,4.75h3.8Zm-6.63-6.53h-6.5V134h7.22a5.48,5.48,0,0,1,3.72,1,3.42,3.42,0,0,1,1.18,2.66,3.71,3.71,0,0,1-.62,2.05,3.32,3.32,0,0,1-1.76,1.36A9.64,9.64,0,0,1,395.19,141.51Z"/><path class="cls-3" d="M394.49,122.06a20.29,20.29,0,1,0,20.28,20.29A20.33,20.33,0,0,0,394.49,122.06Zm0,37.08a16.8,16.8,0,1,1,16.79-16.79A16.83,16.83,0,0,1,394.49,159.14Z"/></svg>